<svg width="76" height="20" viewBox="0 0 76 20" fill="none" xmlns="http://www.w3.org/2000/svg">
<path d="M4.54212 0.0233203V1.00623C4.35797 0.985788 4.17276 0.975983 3.98746 0.976862C2.02648 0.976862 0.990532 2.27762 0.990532 4.73834V7.23707H2.80738V8.15865H0.987038V18.9439H0V4.62692C0 3.0446 0.414905 1.79739 1.19929 1.02091C1.88411 0.345486 2.82048 0 3.98396 0C4.18661 0 4.36742 0.00777343 4.54212 0.0233203Z" fill="#282828"/>
<path d="M52.0554 0.0615234H51.0684V18.9872H52.0554V0.0615234Z" fill="#282828"/>
<path d="M59.7106 2.54439C59.5827 2.38696 59.4877 2.20594 59.4311 2.01187C59.3745 1.8178 59.3576 1.61454 59.3812 1.41393C59.4048 1.21331 59.4685 1.01934 59.5686 0.843287C59.6687 0.667237 59.8032 0.512625 59.9643 0.388442C60.1254 0.264258 60.3098 0.172983 60.5069 0.119923C60.704 0.0668637 60.9097 0.0530792 61.1123 0.0793713C61.3148 0.105663 61.51 0.171508 61.6865 0.273074C61.8631 0.374641 62.0174 0.509903 62.1406 0.670994L66.5081 6.19877C66.5413 6.24109 66.5788 6.28514 66.6155 6.32401C66.0807 6.41033 65.5764 6.62825 65.149 6.95773C64.7216 7.28721 64.3849 7.71766 64.1697 8.2095C64.142 8.16181 64.1108 8.11619 64.0763 8.07303L59.7106 2.54439Z" fill="#282828"/>
<path d="M74.6716 16.5305C74.8001 16.6877 74.8958 16.8686 74.9529 17.0627C75.0101 17.2568 75.0276 17.4601 75.0045 17.661C74.9814 17.8618 74.9181 18.0561 74.8183 18.2326C74.7185 18.409 74.5842 18.564 74.4232 18.6886C74.2622 18.8131 74.0777 18.9048 73.8806 18.9582C73.6834 19.0116 73.4774 19.0256 73.2747 18.9996C73.072 18.9735 72.8766 18.9078 72.6998 18.8062C72.523 18.7047 72.3684 18.5694 72.245 18.4083L67.8776 12.8805C67.8059 12.788 67.7222 12.7052 67.6287 12.6343C68.176 12.5515 68.6926 12.331 69.1289 11.9941C69.5653 11.6571 69.9068 11.2149 70.1207 10.71C70.1701 10.8137 70.231 10.9116 70.3024 11.0019L74.6716 16.5305Z" fill="#282828"/>
<path d="M66.7273 12.6547C66.6471 12.7206 66.5745 12.795 66.5107 12.8766L62.1433 18.4044C61.8914 18.723 61.5219 18.9297 61.116 18.979C60.7101 19.0282 60.301 18.916 59.9788 18.667C59.6565 18.418 59.4475 18.0526 59.3977 17.6512C59.3479 17.2498 59.4614 16.8453 59.7132 16.5267L64.0806 10.9989C64.1234 10.9441 64.1622 10.8864 64.1968 10.8262C64.4274 11.318 64.7811 11.7435 65.2243 12.0626C65.6676 12.3816 66.1858 12.5836 66.7299 12.6495" fill="#282828"/>
<path d="M67.7352 6.35352C67.7859 6.30641 67.8329 6.25559 67.8759 6.2015L72.2433 0.673728C72.3678 0.516238 72.5224 0.38453 72.6983 0.286123C72.8742 0.187716 73.0681 0.124538 73.2687 0.100197C73.4693 0.0758549 73.6728 0.090826 73.8676 0.144255C74.0624 0.197684 74.2446 0.288525 74.4039 0.411591C74.5631 0.534656 74.6963 0.687537 74.7959 0.861504C74.8954 1.03547 74.9593 1.22712 74.9839 1.4255C75.0085 1.62388 74.9934 1.82512 74.9393 2.01771C74.8853 2.21031 74.7934 2.3905 74.669 2.54799L70.3015 8.07576C70.2381 8.15623 70.1833 8.24308 70.1382 8.33488C69.9398 7.83068 69.6151 7.38455 69.1947 7.0383C68.7742 6.69206 68.2718 6.45703 67.7344 6.35524" fill="#282828"/>
<path d="M69.2236 9.53743C69.2238 9.93481 69.1048 10.3233 68.8816 10.6538C68.6585 10.9843 68.3412 11.2419 67.97 11.3941C67.5988 11.5463 67.1902 11.5862 66.796 11.5088C66.4019 11.4314 66.0398 11.2401 65.7555 10.9592C65.4713 10.6783 65.2777 10.3203 65.1993 9.93055C65.1208 9.54082 65.161 9.13683 65.3147 8.76969C65.4685 8.40254 65.7289 8.08872 66.063 7.86793C66.3972 7.64714 66.79 7.5293 67.1919 7.5293C67.7306 7.5293 68.2472 7.74084 68.6282 8.11741C69.0092 8.49399 69.2234 9.00476 69.2236 9.53743Z" fill="#FF8500"/>
<path d="M11.427 7.16309C8.03963 7.16309 5.4873 9.70759 5.4873 13.0821V13.1253C5.4873 16.4748 8.04137 18.9986 11.427 18.9986C14.8126 18.9986 17.3667 16.4549 17.3667 13.0804V13.0424C17.3667 9.69291 14.8118 7.16913 11.427 7.16913V7.16309ZM16.4216 13.0605V13.1037C16.4216 15.954 14.2842 18.1055 11.4506 18.1055C8.63884 18.1055 6.43591 15.9082 6.43591 13.1037V13.0605C6.43591 10.2103 8.57245 8.05876 11.406 8.05876C14.2187 8.05876 16.4216 10.256 16.4216 13.0605Z" fill="#282828"/>
<path d="M45.3906 8.44687C44.5407 7.60648 43.2986 7.18066 41.6992 7.18066C40.3602 7.18066 39.1391 7.48383 37.7397 8.16357L37.5397 8.26117L37.9048 9.07306L38.1206 8.97028C39.4186 8.35273 40.5157 8.0772 41.6774 8.0772C44.2498 8.0772 45.6081 9.33909 45.6081 11.7264V12.3198C44.3413 11.9334 43.0232 11.7363 41.6975 11.735C38.5713 11.735 36.55 13.1861 36.55 15.43V15.4741C36.55 17.8786 38.8071 18.973 40.9044 18.973C43.234 18.973 44.835 17.8925 45.6081 16.8258V19.0015H46.5366V11.7039C46.5366 10.3159 46.14 9.18967 45.3888 8.44687H45.3906ZM45.6081 13.2595V14.4937C45.6081 16.2169 43.8183 18.0764 40.9262 18.0764C39.3461 18.0764 37.5013 17.3898 37.5013 15.4525V15.4084C37.5013 13.3614 39.6806 12.6324 41.7202 12.6324C43.1702 12.6324 44.407 12.832 45.6081 13.2595Z" fill="#282828"/>
<path d="M27.7226 8.0757C28.7533 8.06501 29.7601 8.38302 30.5937 8.9826L30.6095 8.99383H32.0228L31.9171 8.89623C31.1475 8.16121 29.8766 7.18262 27.7436 7.18262C24.5213 7.18262 21.8982 9.82386 21.8982 13.0697V13.1112C21.8982 16.3596 24.5117 19.0017 27.7226 19.0017C29.3464 19.0017 30.7178 18.4334 31.9153 17.2639L32.0175 17.1637H30.6129L30.5972 17.1749C29.7759 17.7879 28.7725 18.1147 27.7436 18.1043C25.0445 18.1043 22.852 15.8586 22.852 13.0904V13.049C22.852 10.2609 24.993 8.07743 27.7261 8.07743" fill="#282828"/>
</svg>
