<svg width="19" height="18" viewBox="0 0 19 18" fill="none" xmlns="http://www.w3.org/2000/svg">
<path d="M7.72471 2.57146C8.66816 2.57003 9.59377 2.82854 10.4 3.31861C11.2061 3.80868 11.8617 4.51138 12.2948 5.34958C12.7278 6.18778 12.9216 7.12907 12.8548 8.07016C12.788 9.01124 12.4633 9.91574 11.9162 10.6844L11.4083 11.398L10.6947 11.9058C10.0349 12.3734 9.27404 12.6787 8.47401 12.7969C7.67398 12.9151 6.85735 12.8429 6.09048 12.5861C5.32362 12.3293 4.62817 11.8952 4.06064 11.3191C3.49312 10.7429 3.06954 10.041 2.82434 9.27035C2.57913 8.49971 2.51922 7.68208 2.64946 6.88392C2.77971 6.08576 3.09644 5.3296 3.57392 4.67688C4.05139 4.02416 4.67613 3.49331 5.39737 3.12748C6.11861 2.76164 6.91599 2.57114 7.72471 2.57146ZM7.72471 6.95274e-06C6.51026 -0.00162341 5.31258 0.283498 4.22913 0.83217C3.14568 1.38084 2.20708 2.17756 1.4897 3.15749C0.772326 4.13743 0.296444 5.27289 0.10078 6.47148C-0.094883 7.67006 -0.00479883 8.89791 0.363702 10.0551C0.732203 11.2123 1.36871 12.2662 2.22142 13.1309C3.07414 13.9956 4.11897 14.6468 5.27089 15.0315C6.42282 15.4162 7.64929 15.5234 8.8505 15.3446C10.0517 15.1657 11.1937 14.7058 12.1836 14.0022L15.8061 17.6254C16.3063 18.1249 17.1176 18.1249 17.6171 17.6254L17.6357 17.6067C17.7627 17.4925 17.8643 17.3529 17.9338 17.1969C18.0034 17.0409 18.0393 16.872 18.0393 16.7013C18.0393 16.5305 18.0034 16.3616 17.9338 16.2056C17.8643 16.0496 17.7627 15.91 17.6357 15.7958L14.0125 12.1733C14.8328 11.0199 15.3197 9.66293 15.4197 8.25116C15.5197 6.83939 15.229 5.42735 14.5795 4.16988C13.9299 2.91242 12.9467 1.8581 11.7375 1.12254C10.5284 0.38699 9.14001 -0.00138561 7.72471 6.95274e-06Z" fill="#938C8C"/>
</svg>
