<svg width="19" height="19" viewBox="0 0 19 19" fill="none" xmlns="http://www.w3.org/2000/svg">
<path fill-rule="evenodd" clip-rule="evenodd" d="M17.0393 2.00245H15.8693C15.6627 1.41692 15.2796 0.909884 14.7727 0.55124C14.2658 0.192596 13.6602 0 13.0393 0C12.4184 0 11.8128 0.192596 11.3059 0.55124C10.799 0.909884 10.4159 1.41692 10.2093 2.00245H1.03931C0.77409 2.00245 0.519736 2.10781 0.3322 2.29534C0.144663 2.48288 0.0393066 2.73723 0.0393066 3.00245C0.0393066 3.26767 0.144663 3.52202 0.3322 3.70956C0.519736 3.89709 0.77409 4.00245 1.03931 4.00245H10.2093C10.4159 4.58798 10.799 5.09502 11.3059 5.45366C11.8128 5.81231 12.4184 6.0049 13.0393 6.0049C13.6602 6.0049 14.2658 5.81231 14.7727 5.45366C15.2796 5.09502 15.6627 4.58798 15.8693 4.00245H17.0393C17.3045 4.00245 17.5589 3.89709 17.7464 3.70956C17.934 3.52202 18.0393 3.26767 18.0393 3.00245C18.0393 2.73723 17.934 2.48288 17.7464 2.29534C17.5589 2.10781 17.3045 2.00245 17.0393 2.00245ZM13.0393 4.00245C13.3045 4.00245 13.5589 3.89709 13.7464 3.70956C13.934 3.52202 14.0393 3.26767 14.0393 3.00245C14.0393 2.73723 13.934 2.48288 13.7464 2.29534C13.5589 2.10781 13.3045 2.00245 13.0393 2.00245C12.7741 2.00245 12.5197 2.10781 12.3322 2.29534C12.1447 2.48288 12.0393 2.73723 12.0393 3.00245C12.0393 3.26767 12.1447 3.52202 12.3322 3.70956C12.5197 3.89709 12.7741 4.00245 13.0393 4.00245ZM0.0393066 9.00245C0.0393066 8.73723 0.144663 8.48288 0.3322 8.29534C0.519736 8.10781 0.77409 8.00245 1.03931 8.00245H2.20931C2.41591 7.41692 2.79905 6.90988 3.30591 6.55124C3.81277 6.1926 4.41839 6 5.03931 6C5.66022 6 6.26585 6.1926 6.77271 6.55124C7.27957 6.90988 7.6627 7.41692 7.86931 8.00245H17.0393C17.3045 8.00245 17.5589 8.10781 17.7464 8.29534C17.934 8.48288 18.0393 8.73723 18.0393 9.00245C18.0393 9.26767 17.934 9.52202 17.7464 9.70956C17.5589 9.89709 17.3045 10.0025 17.0393 10.0025H7.86931C7.6627 10.588 7.27957 11.095 6.77271 11.4537C6.26585 11.8123 5.66022 12.0049 5.03931 12.0049C4.41839 12.0049 3.81277 11.8123 3.30591 11.4537C2.79905 11.095 2.41591 10.588 2.20931 10.0025H1.03931C0.77409 10.0025 0.519736 9.89709 0.3322 9.70956C0.144663 9.52202 0.0393066 9.26767 0.0393066 9.00245ZM5.03931 10.0025C5.30452 10.0025 5.55888 9.89709 5.74641 9.70956C5.93395 9.52202 6.03931 9.26767 6.03931 9.00245C6.03931 8.73723 5.93395 8.48288 5.74641 8.29534C5.55888 8.10781 5.30452 8.00245 5.03931 8.00245C4.77409 8.00245 4.51974 8.10781 4.3322 8.29534C4.14466 8.48288 4.03931 8.73723 4.03931 9.00245C4.03931 9.26767 4.14466 9.52202 4.3322 9.70956C4.51974 9.89709 4.77409 10.0025 5.03931 10.0025ZM1.03931 14.0025C0.77409 14.0025 0.519736 14.1078 0.3322 14.2953C0.144663 14.4829 0.0393066 14.7372 0.0393066 15.0025C0.0393066 15.2677 0.144663 15.522 0.3322 15.7096C0.519736 15.8971 0.77409 16.0025 1.03931 16.0025H10.2093C10.4159 16.588 10.799 17.095 11.3059 17.4537C11.8128 17.8123 12.4184 18.0049 13.0393 18.0049C13.6602 18.0049 14.2658 17.8123 14.7727 17.4537C15.2796 17.095 15.6627 16.588 15.8693 16.0025H17.0393C17.3045 16.0025 17.5589 15.8971 17.7464 15.7096C17.934 15.522 18.0393 15.2677 18.0393 15.0025C18.0393 14.7372 17.934 14.4829 17.7464 14.2953C17.5589 14.1078 17.3045 14.0025 17.0393 14.0025H15.8693C15.6627 13.4169 15.2796 12.9099 14.7727 12.5512C14.2658 12.1926 13.6602 12 13.0393 12C12.4184 12 11.8128 12.1926 11.3059 12.5512C10.799 12.9099 10.4159 13.4169 10.2093 14.0025H1.03931ZM14.0393 15.0025C14.0393 15.2677 13.934 15.522 13.7464 15.7096C13.5589 15.8971 13.3045 16.0025 13.0393 16.0025C12.7741 16.0025 12.5197 15.8971 12.3322 15.7096C12.1447 15.522 12.0393 15.2677 12.0393 15.0025C12.0393 14.7372 12.1447 14.4829 12.3322 14.2953C12.5197 14.1078 12.7741 14.0025 13.0393 14.0025C13.3045 14.0025 13.5589 14.1078 13.7464 14.2953C13.934 14.4829 14.0393 14.7372 14.0393 15.0025Z" fill="#938C8C"/>
</svg>
